<?xml version="1.0" encoding="UTF-8" standalone="no"?>
<!-- Creator: CorelDRAW -->

<svg
   xml:space="preserve"
   width="5in"
   height="4.5999999in"
   style="clip-rule:evenodd;fill-rule:evenodd;image-rendering:optimizeQuality;shape-rendering:geometricPrecision;text-rendering:geometricPrecision"
   viewBox="0 0 4.9999999 4.5999997"
   version="1.1"
   id="svg19"
   sodipodi:docname="reshot-icon-find-event-7BGADCZ2UL.svg"
   inkscape:version="1.1.1 (3bf5ae0d25, 2021-09-20)"
   xmlns:inkscape="http://www.inkscape.org/namespaces/inkscape"
   xmlns:sodipodi="http://sodipodi.sourceforge.net/DTD/sodipodi-0.dtd"
   xmlns="http://www.w3.org/2000/svg"
   xmlns:svg="http://www.w3.org/2000/svg"><sodipodi:namedview
   id="namedview21"
   pagecolor="#505050"
   bordercolor="#eeeeee"
   borderopacity="1"
   inkscape:pageshadow="0"
   inkscape:pageopacity="0"
   inkscape:pagecheckerboard="0"
   inkscape:document-units="in"
   showgrid="false"
   fit-margin-top="0"
   fit-margin-left="0"
   fit-margin-right="0"
   fit-margin-bottom="0"
   width="5in"
   height="4.6in"
   inkscape:zoom="1.097108"
   inkscape:cx="327.67968"
   inkscape:cy="327.67968"
   inkscape:window-width="1920"
   inkscape:window-height="1013"
   inkscape:window-x="-9"
   inkscape:window-y="-9"
   inkscape:window-maximized="1"
   inkscape:current-layer="Layer_x0020_1" />
 <defs
   id="defs4">
  <style
   type="text/css"
   id="style2">
   <![CDATA[
    .fil1 {fill:none}
    .fil0 {fill:#212121;fill-rule:nonzero}
   ]]>
  </style>
 </defs>
 <g
   id="Layer_x0020_1"
   inkscape:label="Layer 1"
   inkscape:groupmode="layer">
  <metadata
   id="CorelCorpID_0Corel-Layer" />
  <g
   id="_558153536"
   transform="matrix(0.951785,0,0,0.92479466,-0.7564081,-0.84942702)"
   style="fill:#014254;fill-opacity:1">
   <path
   id="_558154568"
   class="fil0"
   d="M 1.03009,1.17576 H 1.578684 1.685353 V 1.282429 1.400067 H 2.144924 V 1.282429 1.17576 h 0.106669 2.32348 0.106669 V 1.282429 1.400067 H 5.141313 V 1.282429 1.17576 h 0.106669 0.548591 c 0.048716,0 0.092937,0.019858 0.124921,0.051843 0.031984,0.031984 0.051843,0.076213 0.051843,0.124921 v 4.34592 c 0,0.04872 -0.019866,0.092933 -0.051846,0.124913 l -2.087e-4,-2.087e-4 c -0.032217,0.032122 -0.076374,0.052055 -0.124709,0.052055 h -4.76648 c -0.0487087,0 -0.092937,-0.019858 -0.12492096,-0.051842 -0.0319843,-0.031984 -0.0518425,-0.076201 -0.0518425,-0.124917 v -4.34592 c 0,-0.04824 0.0198504,-0.092307 0.0518465,-0.1245 l -3.94e-6,-3.9e-6 2.0866e-4,-2.087e-4 2.0866e-4,-2.086e-4 3.94e-6,3.9e-6 C 0.93778556,1.19561 0.98185246,1.1757596 1.0300927,1.1757596 Z m 0.441925,0.213339 h -0.40535 v 4.27276 h 4.69333 V 1.389099 H 5.354649 V 1.45417 c 0,0.043898 -0.017886,0.083736 -0.046693,0.112543 C 5.279149,1.59552 5.23931,1.613406 5.195413,1.613406 H 4.627637 C 4.583739,1.613406 4.543901,1.59552 4.515094,1.566713 4.486287,1.537906 4.468401,1.498067 4.468401,1.45417 V 1.389099 H 2.358261 V 1.45417 c 0,0.043898 -0.017886,0.083736 -0.046693,0.112543 l -2.087e-4,-2.087e-4 c -0.029035,0.028945 -0.068811,0.046902 -0.112335,0.046902 h -0.567776 c -0.043898,0 -0.083736,-0.017886 -0.112543,-0.046693 -0.028807,-0.028807 -0.046693,-0.068646 -0.046693,-0.112543 V 1.389099 Z"
   style="fill:#014254;fill-opacity:1" />
   <path
   id="_558154688"
   class="fil0"
   d="m 1.63126,0.951461 h 0.567772 c 0.043898,0 0.083736,0.0178858 0.112543,0.0466929 0.028807,0.0288071 0.046693,0.0686417 0.046693,0.112547 v 0.343465 c 0,0.043618 -0.017886,0.083315 -0.046693,0.112134 v 4.173e-4 C 2.282768,1.5955242 2.242929,1.6134102 2.199032,1.6134102 H 1.63126 c -0.043905,0 -0.08374,-0.017886 -0.112547,-0.046693 V 1.5662999 C 1.4899059,1.537481 1.4720201,1.4977842 1.4720201,1.4541659 v -0.343465 c 0,-0.043906 0.017886,-0.08374 0.046693,-0.112547 C 1.5475201,0.9693468 1.5873547,0.951461 1.63126,0.951461 Z M 2.144929,1.1648 H 1.685358 v 0.235272 h 0.459571 z"
   style="fill:#014254;fill-opacity:1" />
   <path
   id="_558154592"
   class="fil0"
   d="m 4.62764,0.951461 h 0.567768 c 0.043906,0 0.08374,0.0178858 0.112547,0.0466929 0.028807,0.0288071 0.046693,0.0686417 0.046693,0.112547 v 0.343465 c 0,0.043618 -0.017886,0.083315 -0.046693,0.112134 v 4.173e-4 C 5.279148,1.5955242 5.239313,1.6134102 5.195408,1.6134102 H 4.62764 c -0.043906,0 -0.08374,-0.017886 -0.112547,-0.046693 V 1.5662999 C 4.4862859,1.537481 4.4684001,1.4977842 4.4684001,1.4541659 v -0.343465 c 0,-0.043906 0.017886,-0.08374 0.046693,-0.112547 C 4.5439001,0.9693468 4.5837347,0.951461 4.62764,0.951461 Z M 5.141309,1.1648 H 4.681738 v 0.235272 h 0.459571 z"
   style="fill:#014254;fill-opacity:1" />
   <polygon
   id="_558154232"
   class="fil0"
   points="5.86667,2.17416 0.959996,2.17416 0.959996,1.96082 5.86667,1.96082 "
   style="fill:#014254;fill-opacity:1" />
   <path
   id="_558153776"
   class="fil0"
   d="M 1.55337,2.56792 H 2.226287 2.332956 V 2.674589 3.347502 3.454171 H 2.226287 1.55337 1.446701 V 3.347502 2.674589 2.56792 Z M 2.119618,2.781259 H 1.660039 v 0.459575 h 0.459579 z"
   style="fill:#014254;fill-opacity:1" />
   <path
   id="_558154088"
   class="fil0"
   d="M 1.55337,3.91374 H 2.226287 2.332956 V 4.020409 4.693322 4.799991 H 2.226287 1.55337 1.446701 V 4.693322 4.020409 3.91374 Z M 2.119618,4.127079 H 1.660039 v 0.459575 h 0.459579 z"
   style="fill:#014254;fill-opacity:1" />
   <path
   id="_558153872"
   class="fil0"
   d="m 3.62819,2.55285 c 0.261717,0 0.498677,0.106098 0.670197,0.277618 0.17152,0.17152 0.277618,0.408476 0.277618,0.670193 0,0.261717 -0.106094,0.498669 -0.277618,0.670197 -0.17152,0.17152 -0.40848,0.277618 -0.670197,0.277618 -0.261713,0 -0.498673,-0.106098 -0.670193,-0.277618 C 2.786473,3.99933 2.680379,3.762378 2.680379,3.500661 2.680379,3.238944 2.786477,3.001988 2.957997,2.830468 3.129517,2.658948 3.366473,2.55285 3.62819,2.55285 Z M 4.147552,2.981303 C 4.01465,2.848401 3.831021,2.766189 3.62819,2.766189 c -0.202831,0 -0.386457,0.082213 -0.519358,0.215114 -0.132902,0.132902 -0.215114,0.316528 -0.215114,0.519358 0,0.202831 0.082209,0.386453 0.215114,0.519362 0.132902,0.132902 0.316531,0.215114 0.519358,0.215114 0.202831,0 0.386461,-0.082213 0.519362,-0.215114 0.132906,-0.132909 0.215114,-0.316531 0.215114,-0.519362 0,-0.202831 -0.082213,-0.386457 -0.215114,-0.519358 z"
   style="fill:#014254;fill-opacity:1" />
   <polygon
   id="_558153320"
   class="fil0"
   points="5.19787,5.30208 4.13243,4.23663 4.28326,4.0858 5.34871,5.15124 "
   style="fill:#014254;fill-opacity:1" />
  </g>
 </g>
 <rect
   class="fil1"
   width="6.8266602"
   height="6.8266602"
   id="rect17"
   x="0"
   y="0" />
</svg>
