<?xml version="1.0" encoding="UTF-8" standalone="no"?>
<svg
   viewBox="0 0 18 21.999763"
   version="1.1"
   id="svg4"
   sodipodi:docname="reshot-icon-fire-flame-RWFT7MJU3S.svg"
   width="18"
   height="21.999763"
   inkscape:version="1.1.1 (3bf5ae0d25, 2021-09-20)"
   xmlns:inkscape="http://www.inkscape.org/namespaces/inkscape"
   xmlns:sodipodi="http://sodipodi.sourceforge.net/DTD/sodipodi-0.dtd"
   xmlns="http://www.w3.org/2000/svg"
   xmlns:svg="http://www.w3.org/2000/svg">
  <defs
     id="defs8" />
  <sodipodi:namedview
     id="namedview6"
     pagecolor="#505050"
     bordercolor="#eeeeee"
     borderopacity="1"
     inkscape:pageshadow="0"
     inkscape:pageopacity="0"
     inkscape:pagecheckerboard="0"
     showgrid="false"
     fit-margin-top="0"
     fit-margin-left="0"
     fit-margin-right="0"
     fit-margin-bottom="0"
     inkscape:zoom="29.958333"
     inkscape:cx="8.9958275"
     inkscape:cy="10.998609"
     inkscape:window-width="1920"
     inkscape:window-height="1013"
     inkscape:window-x="-9"
     inkscape:window-y="-9"
     inkscape:window-maximized="1"
     inkscape:current-layer="svg4" />
  <path
     d="m 12.874,5.1997626 c -2.069,-1.45 -3.224,-2.352 -2.894,-4 A 1,1 0 0 0 8.758,0.02976259 C 8.67,0.05176259 0,2.3187626 0,10.999763 c 0,6.683 3.532,11 9,11 h 0.005 c 0.014,0 0.081,0 0.178,-0.007 3.153,-0.069 8.817,-2.006 8.817,-8.993 C 18,8.7997626 15.158,6.8057626 12.874,5.1997626 Z M 12.84,18.779763 a 8.1,8.1 0 0 1 -3.835,1.22 H 9 a 5.919,5.919 0 0 1 -3.142,-0.846 2.766,2.766 0 0 1 -1.224,-1.961 3.341,3.341 0 0 1 1.115,-2.993 c 1.375,-1.585 2.368,-2.73 2.381,-4.8170004 C 10.219,10.146763 14,12.135763 14,16.499763 a 2.752,2.752 0 0 1 -1.16,2.28 z m 2.977,-4.029 C 14.843,9.9307626 9.938,7.5997626 7.207,7.0207626 a 1,1 0 0 0 -1.191,1.153 c 0.391,2.2140004 -0.2,2.9000004 -1.778,4.7160004 a 5.612,5.612 0 0 0 -1.505,2.594 A 12.772,12.772 0 0 1 2,10.999763 9.179,9.179 0 0 1 7.975,2.4187626 c 0.325,2.018 2.125,3.281 3.751,4.421 2.198,1.543 4.274,3.001 4.274,6.1600004 a 8.741,8.741 0 0 1 -0.183,1.751 z"
     id="path2"
     style="fill:#014254;fill-opacity:1" />
</svg>
