<?xml version="1.0" encoding="UTF-8" standalone="no"?>
<!-- Generator: Adobe Illustrator 24.0.0, SVG Export Plug-In . SVG Version: 6.00 Build 0)  -->

<svg
   version="1.1"
   x="0px"
   y="0px"
   viewBox="0 0 189.33308 243.802"
   xml:space="preserve"
   id="svg315"
   sodipodi:docname="reshot-icon-relax-music-G36U9SPAZ5.svg"
   width="189.33308"
   height="243.802"
   inkscape:version="1.1.1 (3bf5ae0d25, 2021-09-20)"
   xmlns:inkscape="http://www.inkscape.org/namespaces/inkscape"
   xmlns:sodipodi="http://sodipodi.sourceforge.net/DTD/sodipodi-0.dtd"
   xmlns="http://www.w3.org/2000/svg"
   xmlns:svg="http://www.w3.org/2000/svg"><defs
   id="defs319">
	

		
		
		
		
		
		
		
		
		
		
		
		
		
		
		
		
		
		
		
		
		
		
		
		
		
		
		
		
		
		
		
		
		
		
		
		
	</defs><sodipodi:namedview
   id="namedview317"
   pagecolor="#505050"
   bordercolor="#eeeeee"
   borderopacity="1"
   inkscape:pageshadow="0"
   inkscape:pageopacity="0"
   inkscape:pagecheckerboard="0"
   showgrid="false"
   fit-margin-top="0"
   fit-margin-left="0"
   fit-margin-right="0"
   fit-margin-bottom="0"
   inkscape:zoom="2.8085938"
   inkscape:cx="105.9249"
   inkscape:cy="116.96245"
   inkscape:window-width="1920"
   inkscape:window-height="1013"
   inkscape:window-x="-9"
   inkscape:window-y="-9"
   inkscape:window-maximized="1"
   inkscape:current-layer="svg315" />
<style
   type="text/css"
   id="style2">
	.st0{fill:#F98FA6;}
	.st1{fill:#FC657E;}
	.st2{fill:#DAE6F1;}
	.st3{fill:#5290DB;}
	.st4{fill:#FCDD86;}
	.st5{fill:#F5C84C;}
	.st6{fill:#87D147;}
	.st7{fill:#70D6F9;}
	.st8{fill:#EDF4FC;}
	.st9{fill:#9BE5F9;}
	.st10{fill:#B2E26D;}
	.st11{fill:#F9C1A8;}
	.st12{fill:#414344;}
	.st13{fill:#E1FBFF;}
	.st14{fill:#FFE3EC;}
	.st15{fill:#FCBECF;}
	.st16{fill:#EF4460;}
	.st17{fill:#80C2F9;}
	.st18{fill:#3A70BF;}
	.st19{fill:#FCA265;}
	.st20{fill:#5B5D60;}
	.st21{fill:#818182;}
	.st22{fill:#C7D7E5;}
	.st23{fill:#F9D0B4;}
	.st24{fill:#AA6F59;}
	.st25{fill:#D1856D;}
	.st26{fill:#FCC29A;}
	.st27{fill:#29589F;}
	.st28{fill:#F7B386;}
	.st29{fill:#FC8C48;}
	.st30{fill:#FFF0CC;}
	.st31{fill:#57AF12;}
	.st32{fill:#3CAADC;}
	.st33{fill:#EDB311;}
	.st34{fill:#231F20;}
</style>
<g
   id="Layer_1"
   transform="translate(-22.1999,-11.12785)">
</g>
<g
   id="Layer_2"
   transform="translate(-22.1999,-11.12785)">
</g>
<g
   id="Layer_3"
   transform="translate(-22.1999,-11.12785)">
</g>
<g
   id="Layer_4"
   transform="translate(-22.1999,-11.12785)">
</g>
<g
   id="Layer_5"
   transform="translate(-22.1999,-11.12785)">
</g>
<g
   id="Layer_6"
   transform="translate(-22.1999,-11.12785)">
</g>
<g
   id="Layer_7"
   transform="translate(-22.1999,-11.12785)">
</g>
<g
   id="Layer_8"
   transform="translate(-22.1999,-11.12785)">
</g>
<g
   id="Layer_9"
   transform="translate(-22.1999,-11.12785)">
</g>
<g
   id="Layer_10"
   transform="translate(-22.1999,-11.12785)">
</g>
<g
   id="Layer_11"
   transform="translate(-22.1999,-11.12785)">
</g>
<g
   id="Layer_12"
   transform="translate(-22.1999,-11.12785)">
</g>
<g
   id="Layer_13"
   transform="translate(-22.1999,-11.12785)">
</g>
<g
   id="Layer_14"
   transform="translate(-22.1999,-11.12785)">
</g>
<g
   id="Layer_15"
   transform="translate(-22.1999,-11.12785)">
</g>
<g
   id="Layer_16"
   transform="translate(-22.1999,-11.12785)">
</g>
<g
   id="Layer_17"
   transform="translate(-22.1999,-11.12785)">
</g>
<g
   id="Layer_18"
   transform="translate(-22.1999,-11.12785)">
</g>
<g
   id="Layer_19"
   transform="translate(-22.1999,-11.12785)">
</g>
<g
   id="Layer_20"
   transform="translate(-22.1999,-11.12785)">
</g>
<g
   id="Layer_21"
   transform="translate(-22.1999,-11.12785)">
</g>
<g
   id="Layer_22"
   transform="translate(-22.1999,-11.12785)">
</g>
<g
   id="Layer_23"
   transform="translate(-22.1999,-11.12785)">
</g>
<g
   id="Layer_24"
   transform="translate(-22.1999,-11.12785)">
</g>
<g
   id="Layer_25"
   transform="translate(-22.1999,-11.12785)">
</g>
<g
   id="Layer_26"
   transform="translate(-22.1999,-11.12785)">
</g>
<g
   id="Layer_27"
   transform="translate(-22.1999,-11.12785)">
</g>
<g
   id="Layer_28"
   transform="translate(-22.1999,-11.12785)">
</g>
<g
   id="Layer_29"
   transform="translate(-22.1999,-11.12785)">
</g>
<g
   id="Layer_30"
   transform="translate(-22.1999,-11.12785)">
</g>
<g
   id="Layer_31"
   transform="translate(-22.1999,-11.12785)">
</g>
<g
   id="Layer_32"
   transform="translate(-22.1999,-11.12785)">
</g>
<g
   id="Layer_33"
   transform="translate(-22.1999,-11.12785)">
</g>
<g
   id="Layer_34"
   transform="translate(-22.1999,-11.12785)">
</g>
<g
   id="Layer_35"
   transform="translate(-22.1999,-11.12785)">
</g>
<g
   id="Layer_36"
   transform="translate(-22.1999,-11.12785)">
</g>
<g
   id="Layer_37"
   transform="translate(-22.1999,-11.12785)">
</g>
<g
   id="Layer_38"
   transform="translate(-22.1999,-11.12785)">
</g>
<g
   id="Layer_39"
   transform="translate(-22.1999,-11.12785)">
</g>
<g
   id="Layer_40"
   transform="translate(-22.1999,-11.12785)">
</g>
<g
   id="Layer_41"
   transform="translate(-22.1999,-11.12785)">
</g>
<g
   id="Layer_42"
   transform="translate(-22.1999,-11.12785)">
</g>
<g
   id="Layer_43"
   transform="translate(-22.1999,-11.12785)">
</g>
<g
   id="Layer_44"
   transform="translate(-22.1999,-11.12785)">
</g>
<g
   id="Layer_45"
   transform="translate(-22.1999,-11.12785)">
</g>
<g
   id="Layer_46"
   transform="translate(-22.1999,-11.12785)">
</g>
<g
   id="Layer_47"
   transform="translate(-22.1999,-11.12785)">
</g>
<g
   id="Layer_48"
   transform="translate(-22.1999,-11.12785)">
</g>
<g
   id="Layer_49"
   transform="translate(-22.1999,-11.12785)">
</g>
<g
   id="Layer_50"
   transform="translate(-22.1999,-11.12785)">
</g>
<g
   id="Layer_51"
   transform="translate(-22.1999,-11.12785)">
</g>
<g
   id="Layer_52"
   transform="translate(-22.1999,-11.12785)">
</g>
<g
   id="Layer_53"
   transform="translate(-22.1999,-11.12785)">
</g>
<g
   id="Layer_54"
   transform="translate(-22.1999,-11.12785)">
</g>
<g
   id="Layer_55"
   transform="translate(-22.1999,-11.12785)">
</g>
<g
   id="Layer_56"
   transform="translate(-22.1999,-11.12785)">
</g>
<g
   id="Layer_57"
   transform="translate(-22.1999,-11.12785)">
</g>
<g
   id="Layer_58"
   transform="translate(-22.1999,-11.12785)">
</g>
<g
   id="Layer_59"
   transform="translate(-22.1999,-11.12785)">
</g>
<g
   id="Layer_60"
   transform="translate(-22.1999,-11.12785)">
</g>
<g
   id="Layer_61"
   transform="translate(-22.1999,-11.12785)">
</g>
<g
   id="Layer_62"
   transform="translate(-22.1999,-11.12785)">
</g>
<g
   id="Layer_63"
   transform="translate(-22.1999,-11.12785)">
</g>
<g
   id="Layer_64"
   transform="translate(-22.1999,-11.12785)">
</g>
<g
   id="Layer_65"
   transform="translate(-22.1999,-11.12785)">
</g>
<g
   id="Layer_66"
   transform="translate(-22.1999,-11.12785)">
</g>
<g
   id="Layer_67"
   transform="translate(-22.1999,-11.12785)">
</g>
<g
   id="Layer_68"
   transform="translate(-22.1999,-11.12785)">
</g>
<g
   id="Layer_69"
   transform="translate(-22.1999,-11.12785)">
</g>
<g
   id="Layer_70"
   transform="translate(-22.1999,-11.12785)">
</g>
<g
   id="Layer_71"
   transform="translate(-22.1999,-11.12785)">
</g>
<g
   id="Layer_72"
   transform="translate(-22.1999,-11.12785)">
</g>
<g
   id="Layer_73"
   transform="translate(-22.1999,-11.12785)">
</g>
<g
   id="Layer_74"
   transform="translate(-22.1999,-11.12785)">
</g>
<g
   id="Layer_75"
   transform="translate(-22.1999,-11.12785)">
</g>
<g
   id="Layer_76"
   transform="translate(-22.1999,-11.12785)">
</g>
<g
   id="Layer_77"
   transform="translate(-22.1999,-11.12785)">
</g>
<g
   id="Layer_78"
   transform="translate(-22.1999,-11.12785)">
</g>
<g
   id="Layer_79"
   transform="translate(-22.1999,-11.12785)">
</g>
<g
   id="Layer_80"
   transform="translate(-22.1999,-11.12785)">
</g>
<g
   id="Layer_81"
   transform="translate(-22.1999,-11.12785)">
</g>
<g
   id="Layer_82"
   transform="translate(-22.1999,-11.12785)">
</g>
<g
   id="Layer_83"
   transform="translate(-22.1999,-11.12785)">
</g>
<g
   id="Layer_84"
   transform="translate(-22.1999,-11.12785)">
</g>
<g
   id="g110"
   transform="translate(-22.912,-12.196)"
   style="fill:#014254;fill-opacity:1">
			<g
   id="g108"
   style="fill:#014254;fill-opacity:1">
				<path
   class="st1"
   d="m 49.356,151.882 c -4.498,-0.837 -8.042,-4.31 -8.898,-8.716 -0.043,-0.221 -0.352,-0.221 -0.395,0 -0.855,4.406 -4.4,7.879 -8.898,8.716 -0.226,0.042 -0.226,0.345 0,0.387 4.498,0.838 8.042,4.311 8.898,8.717 0.043,0.221 0.352,0.221 0.395,0 0.855,-4.406 4.4,-7.879 8.898,-8.717 0.226,-0.042 0.226,-0.345 0,-0.387 z"
   id="path106"
   style="fill:#014254;fill-opacity:1" />
			</g>
		</g><g
   id="g116"
   transform="translate(-22.912,-12.196)"
   style="fill:#014254;fill-opacity:1">
			<g
   id="g114"
   style="fill:#014254;fill-opacity:1">
				<path
   class="st5"
   d="m 54.41,50.944 c -3.062,-0.57 -5.475,-2.935 -6.057,-5.934 -0.029,-0.15 -0.24,-0.15 -0.269,0 -0.582,3 -2.995,5.364 -6.057,5.934 -0.154,0.028 -0.154,0.234 0,0.263 3.062,0.57 5.475,2.934 6.057,5.934 0.029,0.151 0.24,0.151 0.269,0 0.582,-3 2.995,-5.363 6.057,-5.934 0.154,-0.028 0.154,-0.234 0,-0.263 z"
   id="path112"
   style="fill:#014254;fill-opacity:1" />
			</g>
		</g><g
   id="g122"
   transform="translate(-22.912,-12.196)"
   style="fill:#014254;fill-opacity:1">
			<g
   id="g120"
   style="fill:#014254;fill-opacity:1">
				<path
   class="st7"
   d="m 207.754,38.302 h -2.329 v -2.33 c 0,-1.744 -1.413,-3.157 -3.157,-3.157 -1.744,0 -3.157,1.413 -3.157,3.157 v 2.33 h -2.33 c -1.744,0 -3.157,1.414 -3.157,3.158 0,1.744 1.413,3.157 3.157,3.157 h 2.33 v 2.33 c 0,1.744 1.413,3.158 3.157,3.158 1.744,0 3.157,-1.414 3.157,-3.158 v -2.33 h 2.329 c 1.744,0 3.157,-1.414 3.157,-3.157 0.001,-1.745 -1.413,-3.158 -3.157,-3.158 z"
   id="path118"
   style="fill:#014254;fill-opacity:1" />
			</g>
		</g><g
   id="g128"
   transform="translate(-22.912,-12.196)"
   style="fill:#014254;fill-opacity:1">
			<g
   id="g126"
   style="fill:#014254;fill-opacity:1">
				<path
   class="st6"
   d="m 26.289,177 c -1.865,0 -3.377,1.512 -3.377,3.377 0,1.865 1.512,3.377 3.377,3.377 1.865,0 3.377,-1.512 3.377,-3.377 0,-1.865 -1.512,-3.377 -3.377,-3.377 z"
   id="path124"
   style="fill:#014254;fill-opacity:1" />
			</g>
		</g><g
   id="g134"
   transform="translate(-22.912,-12.196)"
   style="fill:#014254;fill-opacity:1">
			<g
   id="g132"
   style="fill:#014254;fill-opacity:1">
				<path
   class="st1"
   d="m 190.289,15 c -1.865,0 -3.377,1.512 -3.377,3.377 0,1.865 1.512,3.377 3.377,3.377 1.865,0 3.377,-1.512 3.377,-3.377 0,-1.865 -1.512,-3.377 -3.377,-3.377 z"
   id="path130"
   style="fill:#014254;fill-opacity:1" />
			</g>
		</g><g
   id="g196"
   transform="translate(-22.912,-12.196)"
   style="fill:#014254;fill-opacity:1">
			<g
   id="g194"
   style="fill:#014254;fill-opacity:1">
				<g
   id="g192"
   style="fill:#014254;fill-opacity:1">
					<path
   d="m 166.972,64.31 c -0.049,-2.485 -2.025,-4.488 -4.499,-4.561 -16.075,-0.472 -24.355,-6.938 -27.169,-9.696 -0.943,-0.925 -2.248,-1.41 -3.553,-1.327 -1.316,0.082 -2.543,0.723 -3.367,1.759 -13.553,17.045 -33.26,15.068 -41.104,13.426 -1.38,-0.286 -2.8,0.057 -3.896,0.945 -1.084,0.88 -1.706,2.182 -1.707,3.6 v 32.298 c 0,23.518 19.134,42.651 42.651,42.651 23.517,0 42.65,-19.134 42.65,-42.651 V 64.986 c 0.001,-0.224 -0.001,-0.45 -0.006,-0.676 z m -4.993,36.443 c 0,20.761 -16.89,37.651 -37.65,37.651 -20.76,0 -37.651,-16.891 -37.651,-37.651 V 68.891 c 7.29,1.449 29.989,4.053 45.393,-15.01 4.126,3.937 13.299,10.284 29.908,10.855 10e-4,0.083 10e-4,0.167 10e-4,0.25 v 35.767 z"
   id="path190"
   style="fill:#014254;fill-opacity:1" />
				</g>
			</g>
		</g><g
   id="g202"
   transform="translate(-22.912,-12.196)">
			<g
   id="g200">
				<path
   d="m 180.523,199.64 c -1.381,0 -2.5,1.119 -2.5,2.5 v 50.324 c 0,1.381 1.119,2.5 2.5,2.5 1.381,0 2.5,-1.119 2.5,-2.5 V 202.14 c 0,-1.381 -1.119,-2.5 -2.5,-2.5 z"
   id="path198"
   style="fill:#014254;fill-opacity:1" />
			</g>
		</g><g
   id="g208"
   transform="translate(-22.912,-12.196)"
   style="fill:#014254;fill-opacity:1">
			<g
   id="g206"
   style="fill:#014254;fill-opacity:1">
				<path
   d="m 69.3,199.64 c -1.381,0 -2.5,1.119 -2.5,2.5 v 50.324 c 0,1.381 1.119,2.5 2.5,2.5 1.381,0 2.5,-1.119 2.5,-2.5 V 202.14 c 0,-1.381 -1.119,-2.5 -2.5,-2.5 z"
   id="path204"
   style="fill:#014254;fill-opacity:1" />
			</g>
		</g><g
   id="g214"
   transform="translate(-22.912,-12.196)"
   style="fill:#014254;fill-opacity:1">
			<g
   id="g212"
   style="fill:#014254;fill-opacity:1">
				<path
   d="m 212.234,248.683 -4.438,-65.731 c -0.449,-8.06 -6.01,-14.799 -13.838,-16.771 l -30.925,-7.782 -10.783,-5.317 c -3.911,-1.93 -6.342,-5.837 -6.342,-10.198 v -6.173 c 0,-1.381 -1.119,-2.5 -2.5,-2.5 -1.381,0 -2.5,1.119 -2.5,2.5 v 6.173 c 0,6.279 3.499,11.905 9.131,14.683 L 161.062,163 c 0.158,0.078 0.324,0.139 0.495,0.183 l 31.182,7.847 c 5.694,1.435 9.739,6.337 10.068,12.229 l 4.438,65.731 c 0.029,0.528 -0.154,1.03 -0.519,1.415 -0.363,0.384 -0.854,0.596 -1.383,0.596 H 44.48 c -0.528,0 -1.02,-0.212 -1.383,-0.596 -0.364,-0.385 -0.548,-0.887 -0.521,-1.386 l 4.441,-65.79 c 0.327,-5.862 4.372,-10.765 10.066,-12.198 l 31.182,-7.848 c 0.171,-0.044 0.337,-0.104 0.495,-0.183 l 11.021,-5.435 c 5.632,-2.777 9.131,-8.403 9.131,-14.683 v -5.591 c 0,-1.381 -1.119,-2.5 -2.5,-2.5 -1.381,0 -2.5,1.119 -2.5,2.5 v 5.591 c 0,4.361 -2.43,8.269 -6.342,10.198 l -10.783,5.317 -30.925,7.783 c -7.828,1.971 -13.389,8.71 -13.836,16.74 l -4.441,65.79 c -0.105,1.886 0.579,3.755 1.878,5.128 1.298,1.373 3.126,2.16 5.016,2.16 h 160.862 c 1.89,0 3.718,-0.787 5.016,-2.16 1.3,-1.371 1.985,-3.24 1.877,-5.155 z"
   id="path210"
   style="fill:#014254;fill-opacity:1" />
			</g>
		</g><g
   id="g220"
   transform="translate(-22.912,-12.196)"
   style="fill:#014254;fill-opacity:1">
			<g
   id="g218"
   style="fill:#014254;fill-opacity:1">
				<path
   d="m 153.624,154.862 c -1.204,-0.671 -2.729,-0.235 -3.399,0.972 -5.133,9.237 -14.833,14.977 -25.313,14.977 -10.493,0 -20.198,-5.75 -25.329,-15.006 -0.671,-1.209 -2.192,-1.644 -3.398,-0.975 -1.208,0.669 -1.644,2.191 -0.975,3.398 6.012,10.845 17.393,17.582 29.702,17.582 12.295,0 23.67,-6.725 29.685,-17.549 0.669,-1.205 0.234,-2.728 -0.973,-3.399 z"
   id="path216"
   style="fill:#014254;fill-opacity:1" />
			</g>
		</g><g
   id="g226"
   transform="translate(-22.912,-12.196)"
   style="fill:#014254;fill-opacity:1">
			<g
   id="g224"
   style="fill:#014254;fill-opacity:1">
				<path
   d="m 106.62,80.788 c -5.021,0 -9.105,4.085 -9.105,9.105 0,1.381 1.119,2.5 2.5,2.5 1.381,0 2.5,-1.119 2.5,-2.5 0,-2.264 1.842,-4.105 4.105,-4.105 2.263,0 4.105,1.842 4.105,4.105 0,1.381 1.119,2.5 2.5,2.5 1.381,0 2.5,-1.119 2.5,-2.5 0.001,-5.02 -4.084,-9.105 -9.105,-9.105 z"
   id="path222"
   style="fill:#014254;fill-opacity:1" />
			</g>
		</g><g
   id="g232"
   transform="translate(-22.912,-12.196)"
   style="fill:#014254;fill-opacity:1">
			<g
   id="g230"
   style="fill:#014254;fill-opacity:1">
				<path
   d="m 143.203,80.788 c -5.021,0 -9.105,4.085 -9.105,9.105 0,1.381 1.119,2.5 2.5,2.5 1.381,0 2.5,-1.119 2.5,-2.5 0,-2.264 1.842,-4.105 4.105,-4.105 2.263,0 4.105,1.842 4.105,4.105 0,1.381 1.119,2.5 2.5,2.5 1.381,0 2.5,-1.119 2.5,-2.5 0.001,-5.02 -4.084,-9.105 -9.105,-9.105 z"
   id="path228"
   style="fill:#014254;fill-opacity:1" />
			</g>
		</g><g
   id="g238"
   transform="translate(-22.912,-12.196)"
   style="fill:#014254;fill-opacity:1">
			<g
   id="g236"
   style="fill:#014254;fill-opacity:1">
				<path
   d="m 138.931,111.357 c -0.617,-1.234 -2.12,-1.731 -3.355,-1.115 -3.078,1.543 -6.766,2.358 -10.663,2.358 -3.898,0 -7.586,-0.815 -10.664,-2.358 -1.232,-0.616 -2.736,-0.12 -3.355,1.115 -0.618,1.234 -0.119,2.736 1.115,3.355 3.77,1.889 8.231,2.888 12.904,2.888 4.672,0 9.134,-0.999 12.903,-2.888 1.234,-0.618 1.733,-2.12 1.115,-3.355 z"
   id="path234"
   style="fill:#014254;fill-opacity:1" />
			</g>
		</g><g
   id="g268"
   transform="translate(-22.912,-12.196)"
   style="fill:#014254;fill-opacity:1">
			<g
   id="g266"
   style="fill:#014254;fill-opacity:1">
				<path
   d="m 130.889,12.196 h -13.986 c -22.484,0 -40.776,18.292 -40.776,40.776 v 7.967 c 0,1.381 1.119,2.5 2.5,2.5 1.381,0 2.5,-1.119 2.5,-2.5 v -7.967 c 0,-19.728 16.049,-35.776 35.776,-35.776 h 13.986 c 19.727,0 35.775,16.049 35.775,35.776 v 8.466 c 0,1.381 1.119,2.5 2.5,2.5 1.381,0 2.5,-1.119 2.5,-2.5 v -8.466 c 0,-22.484 -18.292,-40.776 -40.775,-40.776 z"
   id="path264"
   style="fill:#014254;fill-opacity:1" />
			</g>
		</g>
</svg>
