<?xml version="1.0" encoding="UTF-8" standalone="no"?>
<svg
   id="_1.Pin"
   data-name="1.Pin"
   viewBox="0 0 24 24"
   version="1.1"
   sodipodi:docname="reshot-icon-pin-74U6KRPJEH.svg"
   inkscape:version="1.1.1 (3bf5ae0d25, 2021-09-20)"
   xmlns:inkscape="http://www.inkscape.org/namespaces/inkscape"
   xmlns:sodipodi="http://sodipodi.sourceforge.net/DTD/sodipodi-0.dtd"
   xmlns="http://www.w3.org/2000/svg"
   xmlns:svg="http://www.w3.org/2000/svg"
   xmlns:rdf="http://www.w3.org/1999/02/22-rdf-syntax-ns#"
   xmlns:cc="http://creativecommons.org/ns#"
   xmlns:dc="http://purl.org/dc/elements/1.1/">
  <defs
     id="defs11" />
  <sodipodi:namedview
     id="namedview9"
     pagecolor="#505050"
     bordercolor="#eeeeee"
     borderopacity="1"
     inkscape:pageshadow="0"
     inkscape:pageopacity="0"
     inkscape:pagecheckerboard="0"
     showgrid="false"
     inkscape:zoom="29.958333"
     inkscape:cx="12"
     inkscape:cy="12"
     inkscape:window-width="1920"
     inkscape:window-height="1013"
     inkscape:window-x="-9"
     inkscape:window-y="-9"
     inkscape:window-maximized="1"
     inkscape:current-layer="_1.Pin" />
  <title
     id="title2">1.Pin</title>
  <path
     d="M13.376,24H10.624l-.283-.248C10,23.455,2,16.38,2,10a10,10,0,0,1,20,0c0,6.38-8,13.455-8.341,13.752Zm-1.99-2h1.227C13.979,20.735,20,14.877,20,10A8,8,0,0,0,4,10C4,14.886,10.021,20.737,11.386,22Z"
     id="path4"
     style="fill:#014254;fill-opacity:1" />
  <path
     d="M12,15a5,5,0,1,1,5-5A5.006,5.006,0,0,1,12,15Zm0-8a3,3,0,1,0,3,3A3,3,0,0,0,12,7Z"
     id="path6"
     style="fill:#014254;fill-opacity:1" />
  <metadata
     id="metadata828">
    <rdf:RDF>
      <cc:Work
         rdf:about="">
        <dc:title>1.Pin</dc:title>
      </cc:Work>
    </rdf:RDF>
  </metadata>
</svg>
