<?xml version="1.0" encoding="UTF-8" standalone="no"?>
<svg
   width="51"
   height="50.643002"
   viewBox="0 0 51 50.643002"
   version="1.1"
   xml:space="preserve"
   style="clip-rule:evenodd;fill-rule:evenodd;stroke-linecap:round;stroke-linejoin:round;stroke-miterlimit:2"
   id="svg11"
   sodipodi:docname="plane.svg"
   inkscape:version="1.1.1 (3bf5ae0d25, 2021-09-20)"
   xmlns:inkscape="http://www.inkscape.org/namespaces/inkscape"
   xmlns:sodipodi="http://sodipodi.sourceforge.net/DTD/sodipodi-0.dtd"
   xmlns="http://www.w3.org/2000/svg"
   xmlns:svg="http://www.w3.org/2000/svg"
   xmlns:rdf="http://www.w3.org/1999/02/22-rdf-syntax-ns#"
   xmlns:cc="http://creativecommons.org/ns#"
   xmlns:dc="http://purl.org/dc/elements/1.1/"><sodipodi:namedview
   id="namedview9"
   pagecolor="#505050"
   bordercolor="#eeeeee"
   borderopacity="1"
   inkscape:pageshadow="0"
   inkscape:pageopacity="0"
   inkscape:pagecheckerboard="0"
   showgrid="false"
   fit-margin-top="0"
   fit-margin-left="0"
   fit-margin-right="0"
   fit-margin-bottom="0"
   inkscape:zoom="11.234375"
   inkscape:cx="24.968011"
   inkscape:cy="31.020862"
   inkscape:window-width="1920"
   inkscape:window-height="1013"
   inkscape:window-x="-9"
   inkscape:window-y="-9"
   inkscape:window-maximized="1"
   inkscape:current-layer="svg11"
   height="50.643px" />
  <metadata
   id="metadata17">
    <rdf:RDF>
      <cc:Work
   rdf:about="">
        <dc:format>image/svg+xml</dc:format>

        <dc:type
   rdf:resource="http://purl.org/dc/dcmitype/StillImage" />

      </cc:Work>

    </rdf:RDF>

  </metadata>

  <defs
   id="defs15" />

  
  <path
   d="M 21.445063,31.555378 H 6.4510626 c -1.328,0 -2.601,-0.527 -3.54,-1.466 -0.939,-0.939 -1.466,-2.212 -1.466,-3.54 0,-2.53 0,-5.419 0,-7.133 0,-0.83 0.674,-1.504 1.504,-1.504 0.927,0 2.093,0 2.926,0 0.641,0 1.211,0.406 1.421,1.011 0.438,1.261 1.209,3.493 1.879,5.475 0.225,0.669 0.8850004,1.091 1.5860004,1.016 6.02,-0.645 32.622,-3.495 32.622,-3.495 1.546,-0.166 3.089,0.333 4.245,1.372 1.157,1.039 1.817,2.52 1.817,4.075 0,0 0,10e-4 0,10e-4 0,1.111 -0.441,2.176 -1.227,2.961 -0.785,0.786 -1.85,1.227 -2.961,1.227 h -12.403"
   style="fill:none;fill-opacity:1;stroke:#014254;stroke-width:2px;stroke-opacity:1"
   id="path3" />

  <path
   d="m 34.945063,29.555378 c 0,0 -7.58,7.251 -10.432,9.979 -0.686,0.655 -1.597,1.021 -2.545,1.021 -0.769,0 -1.72,0 -2.551,0 -0.432,0 -0.834,-0.219 -1.068,-0.582 -0.233,-0.363 -0.267,-0.82 -0.088,-1.213 1.417,-3.118 4.184,-9.205 4.184,-9.205"
   style="fill:none;stroke:#014254;stroke-width:2px;stroke-opacity:1"
   id="path5" />

  <path
   d="m 36.445063,22.662378 v -3.107 h -5.5 l -4.75,4"
   style="fill:none;stroke:#014254;stroke-width:2px;stroke-opacity:1"
   id="path7" />

  <path
   d="m 4.4450626,25.555378 c 0.098,-0.035 -0.412,3 3,3"
   style="fill:none;stroke:#014254;stroke-width:2px;stroke-opacity:1"
   id="path9" />

</svg>
