<?xml version="1.0" encoding="UTF-8" standalone="no"?>
<svg
   width="50"
   height="24.643"
   viewBox="0 0 50 24.643"
   version="1.1"
   xml:space="preserve"
   style="clip-rule:evenodd;fill-rule:evenodd;stroke-linecap:round;stroke-linejoin:round;stroke-miterlimit:2"
   id="svg11"
   sodipodi:docname="plane.svg"
   inkscape:version="1.1.1 (3bf5ae0d25, 2021-09-20)"
   xmlns:inkscape="http://www.inkscape.org/namespaces/inkscape"
   xmlns:sodipodi="http://sodipodi.sourceforge.net/DTD/sodipodi-0.dtd"
   xmlns="http://www.w3.org/2000/svg"
   xmlns:svg="http://www.w3.org/2000/svg"
   xmlns:rdf="http://www.w3.org/1999/02/22-rdf-syntax-ns#"
   xmlns:cc="http://creativecommons.org/ns#"
   xmlns:dc="http://purl.org/dc/elements/1.1/"><sodipodi:namedview
   id="namedview9"
   pagecolor="#505050"
   bordercolor="#eeeeee"
   borderopacity="1"
   inkscape:pageshadow="0"
   inkscape:pageopacity="0"
   inkscape:pagecheckerboard="0"
   showgrid="false"
   fit-margin-top="0"
   fit-margin-left="0"
   fit-margin-right="0"
   fit-margin-bottom="0"
   inkscape:zoom="11.234375"
   inkscape:cx="24.522949"
   inkscape:cy="14.108484"
   inkscape:window-width="1920"
   inkscape:window-height="1013"
   inkscape:window-x="-9"
   inkscape:window-y="-9"
   inkscape:window-maximized="1"
   inkscape:current-layer="svg11"
   height="50.643px" />
  <metadata
   id="metadata17">
    <rdf:RDF>
      <cc:Work
   rdf:about="">
        <dc:format>image/svg+xml</dc:format>

        <dc:type
   rdf:resource="http://purl.org/dc/dcmitype/StillImage" />

      </cc:Work>

    </rdf:RDF>

  </metadata>

  <defs
   id="defs15" />

  
  <path
   d="M 21,14.643 H 6.006 c -1.328,0 -2.601,-0.527 -3.54,-1.466 C 1.527,12.238 1,10.965 1,9.637 1,7.107 1,4.218 1,2.504 1,1.674 1.674,1 2.504,1 3.431,1 4.597,1 5.43,1 6.071,1 6.641,1.406 6.851,2.011 7.289,3.272 8.06,5.504 8.73,7.486 8.955,8.155 9.6150004,8.577 10.316,8.502 16.336,7.857 42.938,5.007 42.938,5.007 44.484,4.841 46.027,5.34 47.183,6.379 48.34,7.418 49,8.899 49,10.454 c 0,0 0,10e-4 0,10e-4 0,1.111 -0.441,2.176 -1.227,2.961 -0.785,0.786 -1.85,1.227 -2.961,1.227 H 32.409"
   style="fill:none;fill-opacity:1;stroke:#014254;stroke-width:2px;stroke-opacity:1"
   id="path3" />

  <path
   d="m 34.5,12.643 c 0,0 -7.58,7.251 -10.432,9.979 -0.686,0.655 -1.597,1.021 -2.545,1.021 -0.769,0 -1.72,0 -2.551,0 -0.432,0 -0.834,-0.219 -1.068,-0.582 -0.233,-0.363 -0.267,-0.82 -0.088,-1.213 C 19.233,18.73 22,12.643 22,12.643"
   style="fill:none;stroke:#014254;stroke-width:2px;stroke-opacity:1"
   id="path5" />

  <path
   d="M 36,5.75 V 2.643 h -5.5 l -4.75,4"
   style="fill:none;stroke:#014254;stroke-width:2px;stroke-opacity:1"
   id="path7" />

  <path
   d="m 4,8.643 c 0.098,-0.035 -0.412,3 3,3"
   style="fill:none;stroke:#014254;stroke-width:2px;stroke-opacity:1"
   id="path9" />

</svg>
