<?xml version="1.0" encoding="UTF-8" standalone="no"?>
<svg
   viewBox="0 0 362.4212 311.32291"
   version="1.1"
   id="svg12"
   sodipodi:docname="reshot-icon-takeoff-X6JHMDZB7N.svg"
   width="362.4212"
   height="311.32291"
   inkscape:version="1.1.1 (3bf5ae0d25, 2021-09-20)"
   xmlns:inkscape="http://www.inkscape.org/namespaces/inkscape"
   xmlns:sodipodi="http://sodipodi.sourceforge.net/DTD/sodipodi-0.dtd"
   xmlns="http://www.w3.org/2000/svg"
   xmlns:svg="http://www.w3.org/2000/svg"
   xmlns:rdf="http://www.w3.org/1999/02/22-rdf-syntax-ns#"
   xmlns:cc="http://creativecommons.org/ns#"
   xmlns:dc="http://purl.org/dc/elements/1.1/">
  <defs
     id="defs16" />
  <sodipodi:namedview
     id="namedview14"
     pagecolor="#505050"
     bordercolor="#eeeeee"
     borderopacity="1"
     inkscape:pageshadow="0"
     inkscape:pageopacity="0"
     inkscape:pagecheckerboard="0"
     showgrid="false"
     fit-margin-top="0"
     fit-margin-left="0"
     fit-margin-right="0"
     fit-margin-bottom="0"
     inkscape:zoom="1.4042969"
     inkscape:cx="181.22949"
     inkscape:cy="155.59388"
     inkscape:window-width="1920"
     inkscape:window-height="1013"
     inkscape:window-x="-9"
     inkscape:window-y="-9"
     inkscape:window-maximized="1"
     inkscape:current-layer="svg12" />
  <title
     id="title2">Takeoff</title>
  <g
     id="Takeoff"
     style="fill:#014254;fill-opacity:1"
     transform="translate(-74.789398,-100.3384)">
    <g
       id="Takeoff-2"
       data-name="Takeoff"
       style="fill:#014254;fill-opacity:1">
      <path
         d="m 139.1576,331.0168 -16.5281,-29.22 -42.7128,-35.2746 -0.9017,-1.5628 a 15.7568,15.7568 0 0 1 5.7361,-21.47 l 23.4213,-13.5127 60.5112,4.3025 47.1751,-29.8547 -97.8148,-56.2723 -1.3395,-2.3209 a 17.62,17.62 0 0 1 6.44,-24.04 l 37.1574,-21.4529 145.1523,48.1596 59.3551,-36.958 a 49.5215,49.5215 0 0 1 24.6981,-6.67 c 16.758,0 31.6036,8.3828 39.7071,22.4209 a 44.1864,44.1864 0 0 1 5.3894,28.7708 l -0.7011,4.7814 z m -38.8094,-73.492 37.8252,31.2378 8.436,14.9132 L 415.13,148.6443 a 24.004,24.004 0 0 0 -3.1986,-11.3782 c -4.4992,-7.7909 -12.8849,-12.4421 -22.43,-12.4421 a 29.53,29.53 0 0 0 -14.5939,3.9235 l -66.8524,41.6356 -145.5389,-48.2894 -24.8377,14.3412 116.77,67.1783 -80.6378,51.035 -60.9607,-4.3359 z"
         id="path4"
         style="fill:#014254;fill-opacity:1" />
      <rect
         x="74.789398"
         y="356.7988"
         width="362.4212"
         height="19.950001"
         id="rect6"
         style="fill:#014254;fill-opacity:1" />
      <rect
         x="74.789398"
         y="391.7113"
         width="362.4212"
         height="19.950001"
         id="rect8"
         style="fill:#014254;fill-opacity:1" />
    </g>
  </g>
  <metadata
     id="metadata833">
    <rdf:RDF>
      <cc:Work
         rdf:about="">
        <dc:title>Takeoff</dc:title>
      </cc:Work>
    </rdf:RDF>
  </metadata>
</svg>
