<?xml version="1.0" encoding="UTF-8" standalone="no"?>
<!-- Creator: CorelDRAW -->

<svg
   xml:space="preserve"
   width="1188.35"
   height="1536.004"
   style="clip-rule:evenodd;fill-rule:evenodd;image-rendering:optimizeQuality;shape-rendering:geometricPrecision;text-rendering:geometricPrecision"
   viewBox="0 0 1188.35 1536.004"
   version="1.1"
   id="svg18"
   sodipodi:docname="reshot-icon-admin-roles-2ADB84EUPN.svg"
   inkscape:version="1.1.1 (3bf5ae0d25, 2021-09-20)"
   xmlns:inkscape="http://www.inkscape.org/namespaces/inkscape"
   xmlns:sodipodi="http://sodipodi.sourceforge.net/DTD/sodipodi-0.dtd"
   xmlns="http://www.w3.org/2000/svg"
   xmlns:svg="http://www.w3.org/2000/svg"><sodipodi:namedview
   id="namedview20"
   pagecolor="#505050"
   bordercolor="#eeeeee"
   borderopacity="1"
   inkscape:pageshadow="0"
   inkscape:pageopacity="0"
   inkscape:pagecheckerboard="0"
   showgrid="false"
   fit-margin-top="0"
   fit-margin-left="0"
   fit-margin-right="0"
   fit-margin-bottom="0"
   inkscape:zoom="0.35107422"
   inkscape:cx="593.89152"
   inkscape:cy="767.64395"
   inkscape:window-width="1920"
   inkscape:window-height="1013"
   inkscape:window-x="-9"
   inkscape:window-y="-9"
   inkscape:window-maximized="1"
   inkscape:current-layer="Layer_x0020_1" />
 <defs
   id="defs4">
  <style
   type="text/css"
   id="style2">
   <![CDATA[
    .fil2 {fill:none}
    .fil1 {fill:#212121;fill-rule:nonzero}
    .fil0 {fill:#66BB6A;fill-rule:nonzero}
   ]]>
  </style>
 </defs>
 <g
   id="Layer_x0020_1"
   inkscape:label="Layer 1"
   inkscape:groupmode="layer"
   transform="translate(-429.82257,-256.001)">
  <metadata
   id="CorelCorpID_0Corel-Layer" />
  
  
  
 <g
   id="g919"
   style="fill:#014254;fill-opacity:1"><path
     class="fil1"
     d="m 820.072,1158.01 h 49.467 c 6.48308,0 12.3662,2.5724 16.6843,6.7512 21.9673,17.8158 45.0272,32.0587 68.8725,41.6847 22.2579,8.9846 45.3095,13.9169 68.9044,13.9169 23.5937,0 46.6453,-4.9323 68.9032,-13.9169 24.3874,-9.8445 47.9528,-24.5173 70.369,-42.9048 l 15.1878,18.4689 -15.2209,-18.5551 c 4.4669,-3.665 9.861,-5.4461 15.2209,-5.4437 v 0 h 0.058 49.4115 c 107.342,0 204.91,43.8969 275.628,114.615 70.7186,70.7186 114.615,168.287 114.615,275.629 v 219.751 c 0,13.2543 -10.7457,24 -24,24 H 453.82257 c -13.2543,0 -24,-10.7457 -24,-24 v -219.751 c 0,-107.342 43.8957,-204.911 114.615,-275.629 70.7186,-70.7186 168.286,-114.615 275.629,-114.615 z m 41.1792,48 H 820.072 c -94.0926,0 -179.649,38.5111 -241.692,100.553 -62.0434,62.0422 -100.553,147.6 -100.553,241.692 v 195.751 h 1092.35 v -195.751 c 0,-94.0914 -38.5111,-179.649 -100.553,-241.692 -62.0422,-62.0422 -147.599,-100.553 -241.69,-100.553 h -41.1815 c -24.1323,18.9047 -49.5626,34.1894 -76.0312,44.8737 -27.9544,11.2843 -56.9622,17.4791 -86.7166,17.4791 -29.7544,0 -58.7622,-6.1949 -86.7178,-17.4791 -26.4685,-10.6843 -51.8989,-25.9677 -76.0312,-44.8737 z"
     id="path11"
     style="fill:#014254;fill-opacity:1" /><path
     class="fil1"
     d="m 1024,256.001 c 114.973,0 219.09,27.6697 292.537,86.4001 67.3477,53.8536 108.467,132.76 108.467,239.069 0,117.764 -51.7831,275.413 -133.72,394.289 -70.3796,102.106 -163.604,176.667 -267.284,176.667 -103.68,0 -196.904,-74.5607 -267.284,-176.667 -81.9367,-118.876 -133.72,-276.525 -133.72,-394.289 0,-106.31 41.1189,-185.216 108.465,-239.069 73.4481,-58.7304 177.562,-86.4001 292.538,-86.4001 z m 262.723,123.713 C 1222.3611,328.2474 1128.721,304.0006 1024,304.0006 c -104.724,0 -198.362,24.2469 -262.725,75.7134 -56.054,44.8229 -90.2788,111.337 -90.2788,201.756 0,109.135 48.443,255.893 125.095,367.102 62.0882,90.0768 142.062,155.854 227.908,155.854 85.8461,0 165.82,-65.7768 227.908,-155.854 76.6524,-111.209 125.095,-257.967 125.095,-367.102 0,-90.4182 -34.2248,-156.932 -90.28,-201.756 z"
     id="path13"
     style="fill:#014254;fill-opacity:1" /></g></g>
 <rect
   class="fil2"
   width="2048"
   height="2048"
   id="rect16"
   x="-429.82257"
   y="-256.00101" />
</svg>
