<?xml version="1.0" encoding="UTF-8" standalone="no"?>
<!-- Creator: CorelDRAW -->

<svg
   xml:space="preserve"
   width="1536.0045"
   height="1060.9865"
   style="clip-rule:evenodd;fill-rule:evenodd;image-rendering:optimizeQuality;shape-rendering:geometricPrecision;text-rendering:geometricPrecision"
   viewBox="0 0 1536.0045 1060.9865"
   version="1.1"
   id="svg22"
   sodipodi:docname="reshot-icon-users-V8CWTB63DK.svg"
   inkscape:version="1.1.1 (3bf5ae0d25, 2021-09-20)"
   xmlns:inkscape="http://www.inkscape.org/namespaces/inkscape"
   xmlns:sodipodi="http://sodipodi.sourceforge.net/DTD/sodipodi-0.dtd"
   xmlns="http://www.w3.org/2000/svg"
   xmlns:svg="http://www.w3.org/2000/svg"><sodipodi:namedview
   id="namedview24"
   pagecolor="#505050"
   bordercolor="#eeeeee"
   borderopacity="1"
   inkscape:pageshadow="0"
   inkscape:pageopacity="0"
   inkscape:pagecheckerboard="0"
   showgrid="false"
   fit-margin-top="0"
   fit-margin-left="0"
   fit-margin-right="0"
   fit-margin-bottom="0"
   inkscape:zoom="0.35107422"
   inkscape:cx="767.64395"
   inkscape:cy="531.2267"
   inkscape:window-width="1920"
   inkscape:window-height="1013"
   inkscape:window-x="-9"
   inkscape:window-y="-9"
   inkscape:window-maximized="1"
   inkscape:current-layer="Layer_x0020_1" />
 <defs
   id="defs4">
  <style
   type="text/css"
   id="style2">
   <![CDATA[
    .fil2 {fill:none}
    .fil1 {fill:#212121;fill-rule:nonzero}
    .fil0 {fill:#66BB6A;fill-rule:nonzero}
   ]]>
  </style>
 </defs>
 <g
   id="Layer_x0020_1"
   inkscape:label="Layer 1"
   inkscape:groupmode="layer"
   transform="translate(-255.9991,-493.5068)">
  <metadata
   id="CorelCorpID_0Corel-Layer" />
  <path
   class="fil0"
   d="m 914.026,1190.48 h 26.6764 c 6.46772,0 12.3378,2.5595 16.6536,6.7205 10.7776,8.6492 22.0264,15.5528 33.5894,20.2205 10.6913,4.3157 21.75,6.685 33.0544,6.685 11.3043,0 22.363,-2.3693 33.0544,-6.685 12.0886,-4.8792 23.8323,-12.2032 35.0551,-21.4099 l 15.1878,18.4689 -15.2221,-18.5551 c 4.4681,-3.665 9.8622,-5.4473 15.2221,-5.4449 h 0.057 26.6209 c 60.939,0 116.323,24.9142 156.458,65.0493 40.1363,40.1363 65.0481,95.5194 65.0481,156.458 v 118.506 c 0,13.2543 -10.7457,24 -24,24 H 716.51779 c -13.2543,0 -24,-10.7457 -24,-24 v -118.506 c 0,-60.939 24.913,-116.323 65.0493,-156.458 40.1351,-40.1351 95.5194,-65.0493 156.458,-65.0493 z m 18.5138,48 H 914.026 c -47.6894,0 -91.0619,19.5284 -122.521,50.987 -31.4599,31.4587 -50.987,74.8323 -50.987,122.521 v 94.506 h 566.963 v -94.506 c 0,-47.6882 -19.5272,-91.0619 -50.9859,-122.521 -31.4587,-31.4587 -74.8323,-50.987 -122.521,-50.987 h -18.515 c -12.9059,9.7394 -26.4744,17.6799 -40.5922,23.3788 -16.3878,6.6154 -33.4028,10.2473 -50.8678,10.2473 -17.465,0 -34.4799,-3.6319 -50.8678,-10.2473 -14.1177,-5.6988 -27.6874,-13.6394 -40.5922,-23.3788 z"
   id="path7"
   style="fill:#014254;fill-opacity:1" />
  <path
   class="fil0"
   d="m 1024,680.279 c 64.3642,0 122.926,15.7087 164.627,49.0548 38.9185,31.1221 62.6823,76.5296 62.6823,137.521 0,65.4945 -28.6937,153.021 -74.0989,218.894 -39.8634,57.8339 -93.189,100.067 -153.21,100.067 -60.0213,0 -113.347,-42.2327 -153.21,-100.067 -45.4052,-65.8725 -74.0989,-153.399 -74.0989,-218.894 0,-60.991 23.7638,-106.399 62.6823,-137.521 41.7012,-33.3461 100.263,-49.0548 164.627,-49.0548 z m 134.813,86.3682 c -32.6162,-26.0811 -80.7001,-38.3681 -134.813,-38.3681 -54.1134,0 -102.197,12.287 -134.813,38.3681 -27.626,22.0914 -44.4957,55.1067 -44.4957,100.207 0,56.8654 25.3547,133.501 65.4745,191.707 31.5721,45.8044 71.6493,79.2532 113.835,79.2532 42.1855,0 82.2627,-33.4488 113.835,-79.2532 40.1197,-58.206 65.4745,-134.842 65.4745,-191.707 0,-45.1004 -16.8697,-78.1158 -44.4957,-100.207 z"
   id="path9"
   style="fill:#014254;fill-opacity:1" />
  <path
   class="fil1"
   d="m 1471.79,875.317 h 18.9295 c 6.4465,0 12.2988,2.54292 16.611,6.67914 6.9803,5.54528 14.2228,9.96733 21.626,12.9555 6.7583,2.72835 13.741,4.22599 20.8677,4.22599 7.1256,0 14.1095,-1.49764 20.8677,-4.22599 7.9075,-3.19134 15.6319,-8.01851 23.0492,-14.1036 l 15.1878,18.4689 -15.2232,-18.554 c 4.4669,-3.66614 9.8622,-5.44961 15.2232,-5.44607 h 0.054 18.8752 c 45.1642,0 86.2075,18.4606 115.947,48.1985 29.7378,29.739 48.1985,70.7823 48.1985,115.94803 v 84.0886 c 0,13.2543 -10.7457,24 -24,24 h -436.36 c -13.2543,0 -24,-10.7457 -24,-24 v -84.0886 c 0,-45.16543 18.4606,-86.20873 48.1996,-115.94703 29.7378,-29.739 70.7823,-48.1996 115.947,-48.1996 z m 10.8744,48 H 1471.79 c -31.9134,0 -60.9473,13.0748 -82.0087,34.1374 -21.0626,21.0614 -34.1374,50.0941 -34.1374,82.0087 v 60.0886 h 388.36 v -60.0886 c 0,-31.9146 -13.0748,-60.9473 -34.1362,-82.0099 -21.0626,-21.0614 -50.0953,-34.1362 -82.0087,-34.1362 h -10.8744 c -9.0685,6.63189 -18.5835,12.078 -28.4788,16.0725 -12.4536,5.02796 -25.3937,7.78819 -38.6811,7.78819 -13.2862,0 -26.2276,-2.76024 -38.6811,-7.78819 -9.8953,-3.99449 -19.4103,-9.44174 -28.4788,-16.0725 z"
   id="path11"
   style="fill:#014254;fill-opacity:1" />
  <path
   class="fil1"
   d="m 1549.82,493.507 c 47.1591,0 90.2351,11.6433 121.143,36.3603 29.2559,23.3941 47.1189,57.4146 47.1189,102.998 0,47.726 -20.8465,111.415 -53.8311,159.268 -29.4898,42.7843 -69.2516,74.028 -114.431,74.028 -45.1784,0 -84.9414,-31.2425 -114.432,-74.0268 -32.9835,-47.8548 -53.83,-111.543 -53.83,-159.269 0,-45.5835 17.863,-79.604 47.1189,-102.998 30.9083,-24.7169 73.9843,-36.3603 121.143,-36.3603 z m 91.33,73.6737 c -21.8244,-17.452 -54.4217,-25.6736 -91.33,-25.6736 -36.9083,0 -69.5056,8.22166 -91.33,25.6736 -17.9634,14.3646 -28.9323,35.9918 -28.9323,65.6847 0,39.0981 17.5063,91.8957 45.2055,132.083 21.1984,30.7547 47.7118,53.2134 75.0568,53.2134 27.3449,0 53.8571,-22.4599 75.0556,-53.2146 27.7004,-40.1859 45.2067,-92.9835 45.2067,-132.082 0,-29.6929 -10.9689,-51.3201 -28.9323,-65.6847 z"
   id="path13"
   style="fill:#014254;fill-opacity:1" />
  <path
   class="fil1"
   d="m 420.144,875.317 h 18.9295 c 6.44646,0 12.2988,2.54292 16.611,6.67914 6.98032,5.54528 14.2228,9.96733 21.626,12.9555 6.75827,2.72835 13.7421,4.22599 20.8677,4.22599 7.12678,0 14.1095,-1.49764 20.8677,-4.22599 7.90749,-3.19134 15.6319,-8.01851 23.0492,-14.1036 l 15.1878,18.4689 -15.2232,-18.554 c 4.46693,-3.66614 9.86221,-5.44961 15.2232,-5.44607 h 0.0543 18.8764 c 45.1642,0 86.2075,18.4606 115.947,48.1985 29.7378,29.739 48.1985,70.7823 48.1985,115.94803 v 84.0886 c 0,13.2543 -10.7457,24 -24,24 h -436.36 c -13.2543,0 -24,-10.7457 -24,-24 v -84.0886 c 0,-45.16543 18.4606,-86.20873 48.1985,-115.94803 29.739,-29.7378 70.7823,-48.1985 115.947,-48.1985 z m 10.8744,48 H 420.144 c -31.9134,0 -60.9461,13.0748 -82.0087,34.1362 -21.0614,21.0626 -34.1362,50.0953 -34.1362,82.0099 v 60.0886 h 388.36 v -60.0886 c 0,-31.9146 -13.0748,-60.9473 -34.1362,-82.0099 -21.0626,-21.0614 -50.0953,-34.1362 -82.0087,-34.1362 h -10.8756 c -9.06851,6.63189 -18.5835,12.078 -28.4788,16.0725 -12.4536,5.02796 -25.3949,7.78819 -38.6811,7.78819 -13.2874,0 -26.2276,-2.76024 -38.6811,-7.78819 -9.89528,-3.99449 -19.4103,-9.44174 -28.4788,-16.0725 z"
   id="path15"
   style="fill:#014254;fill-opacity:1" />
  <path
   class="fil1"
   d="m 498.179,493.507 c 47.1591,0 90.2351,11.6433 121.143,36.3603 29.2559,23.3941 47.1189,57.4146 47.1189,102.998 0,47.726 -20.8465,111.415 -53.83,159.269 -29.491,42.7843 -69.254,74.0268 -114.432,74.0268 -45.1796,0 -84.9414,-31.2437 -114.431,-74.028 -32.9847,-47.8536 -53.8311,-111.542 -53.8311,-159.268 0,-45.5835 17.863,-79.604 47.1189,-102.998 30.9083,-24.7169 73.9843,-36.3603 121.143,-36.3603 z m 91.33,73.6737 c -21.8244,-17.452 -54.4217,-25.6736 -91.33,-25.6736 -36.9083,0 -69.5056,8.22166 -91.33,25.6736 -17.9634,14.3646 -28.9323,35.9918 -28.9323,65.6847 0,39.0981 17.5063,91.8957 45.2067,132.082 21.1984,30.7547 47.7107,53.2146 75.0556,53.2146 27.3449,0 53.8583,-22.4587 75.0568,-53.2134 27.6992,-40.187 45.2055,-92.9847 45.2055,-132.083 0,-29.6929 -10.9689,-51.3201 -28.9323,-65.6847 z"
   id="path17"
   style="fill:#014254;fill-opacity:1" />
 </g>
 <rect
   class="fil2"
   width="2048"
   height="2048"
   id="rect20"
   x="-255.9991"
   y="-493.50681" />
</svg>
